<svg xmlns="http://www.w3.org/2000/svg" viewBox="0 0 1191 273.13"><defs><style>.cls-1{fill:#39b54a;}</style></defs><title>background</title><g id="Layer_2" data-name="Layer 2"><g id="background"><path class="cls-1" d="M1191,15.13s-128-43-304,16c0,0-82,41-131,43s-118-27-118-27-81-47-185,2c-113.89,53.66-209-8-209-8s-93-64-244-30v262H1191Z"/><rect class="cls-1" x="759.55" y="40.57" width="9.35" height="25.85" rx="4.67" transform="translate(1528.45 106.99) rotate(180)"/><rect class="cls-1" x="763.54" y="53.63" width="1.1" height="20.62" transform="translate(1528.18 127.88) rotate(180)"/><rect class="cls-1" x="777.55" y="31.57" width="11.26" height="31.12" rx="5.63" transform="translate(1566.36 94.26) rotate(180)"/><rect class="cls-1" x="782.35" y="47.3" width="1.32" height="24.83" transform="translate(1566.03 119.42) rotate(180)"/></g></g></svg>