<svg xmlns="http://www.w3.org/2000/svg" viewBox="0 0 1025.18 273.98"><defs><style>.cls-1{fill:#fff;}</style></defs><title>cloudfront</title><g id="Layer_2" data-name="Layer 2"><g id="cloudfront"><path class="cls-1" d="M360.42,129c-10.78-29.31-42.8-50.66-80.77-51.08A88.82,88.82,0,0,0,108.46,57.33c-1.91-.09-3.83-.14-5.76-.14C51.77,57.19,9.36,88.07,0,129Z"/><path class="cls-1" d="M1025.18,203c-.23-76.66-51-138.71-113.68-138.71-39.67,0-74.59,24.89-94.93,62.62a91.26,91.26,0,0,0-28.14-4.4c-35.65,0-65.92,20.18-76.91,48.25a72.64,72.64,0,0,0-21.12-3.12c-27.06,0-50.22,14.62-59.87,35.36Z"/><path class="cls-1" d="M374.47,242.34a83.9,83.9,0,0,0-32.65,6.36c-13.75-19.6-43-33.13-76.81-33.13-47,0-85.17,26.15-85.17,58.41H434.49C427.44,255.77,403.25,242.34,374.47,242.34Z"/></g></g></svg>