<svg xmlns="http://www.w3.org/2000/svg" xmlns:xlink="http://www.w3.org/1999/xlink" viewBox="0 0 1138.83 329.23"><defs><style>.cls-1{fill:none;}.cls-2{clip-path:url(#clip-path);}.cls-3{fill:#fff;}</style><clipPath id="clip-path" transform="translate(-18.93 -31.97)"><rect class="cls-1" width="1192" height="545"/></clipPath></defs><title>cloudfront (7)</title><g id="Layer_2" data-name="Layer 2"><g id="cloudfront"><g class="cls-2"><path class="cls-3" d="M197.62,139.2c-4.68-12.74-18.59-22-35.09-22.19a38.58,38.58,0,0,0-74.36-8.94c-.83,0-1.66-.06-2.51-.06-22.12,0-40.54,13.42-44.61,31.19Z" transform="translate(-18.93 -31.97)"/><path class="cls-3" d="M524.87,229c-5.88-16-23.33-27.62-44-27.85a48.43,48.43,0,0,0-93.34-11.22c-1-.05-2.09-.07-3.15-.07-27.76,0-50.89,16.84-56,39.14Z" transform="translate(-18.93 -31.97)"/><path class="cls-3" d="M905.56,88C900.88,75.27,887,66,870.47,65.81a38.58,38.58,0,0,0-74.36-8.93c-.83,0-1.66-.07-2.5-.07C771.48,56.81,753.06,70.23,749,88Z" transform="translate(-18.93 -31.97)"/><path class="cls-3" d="M167.8,226.8a64.26,64.26,0,0,0-25,4.87c-10.51-15-32.86-25.34-58.74-25.34-36,0-65.15,20-65.15,44.67H213.71C208.32,237.07,189.81,226.8,167.8,226.8Z" transform="translate(-18.93 -31.97)"/><path class="cls-3" d="M465.76,74.19c-1.06,0-2.11,0-3.15.08a48.42,48.42,0,0,0-72.74-22.72c-10.09-8.72-22.4-13.85-35.69-13.85-21.63,0-40.67,13.58-51.76,34.15a49.74,49.74,0,0,0-15.35-2.4c-19.44,0-35.94,11-41.94,26.31a39.46,39.46,0,0,0-11.51-1.7c-14.76,0-27.39,8-32.64,19.28H521.75C516.65,91,493.52,74.19,465.76,74.19Z" transform="translate(-18.93 -31.97)"/><path class="cls-3" d="M648.52,197.91a55.86,55.86,0,0,1,21.76,4.25c9.16-13.07,28.64-22.09,51.19-22.09,31.35,0,56.77,17.43,56.77,38.93H608.51C613.21,206.86,629.34,197.91,648.52,197.91Z" transform="translate(-18.93 -31.97)"/><path class="cls-3" d="M620,110.49A46.46,46.46,0,0,1,638.09,114c7.6-10.85,23.78-18.33,42.5-18.33,26,0,47.14,14.47,47.14,32.32H586.8C590.7,117.92,604.09,110.49,620,110.49Z" transform="translate(-18.93 -31.97)"/><path class="cls-3" d="M511.62,361.2c-4.68-12.74-18.59-22-35.09-22.19a38.58,38.58,0,0,0-74.36-8.94c-.83,0-1.66-.06-2.51-.06-22.12,0-40.54,13.42-44.61,31.19Z" transform="translate(-18.93 -31.97)"/><path class="cls-3" d="M897.87,329c-5.88-16-23.33-27.62-44-27.85a48.43,48.43,0,0,0-93.34-11.22c-1-.05-2.09-.07-3.15-.07-27.76,0-50.89,16.84-56,39.14Z" transform="translate(-18.93 -31.97)"/><path class="cls-3" d="M1147.56,331c-4.68-12.73-18.59-22-35.09-22.19a38.58,38.58,0,0,0-74.36-8.93c-.83,0-1.66-.07-2.5-.07-22.13,0-40.55,13.42-44.62,31.19Z" transform="translate(-18.93 -31.97)"/><path class="cls-3" d="M1103.33,99.22c-1,0-2,0-3,.07a47.23,47.23,0,0,0-70.7-21.93C1019.78,69,1007.81,64,994.89,64c-21,0-39.53,13.1-50.3,33a48.53,48.53,0,0,0-14.91-2.32c-18.9,0-34.94,10.62-40.76,25.39a38.74,38.74,0,0,0-11.2-1.64c-14.33,0-26.61,7.7-31.72,18.61h311.75C1152.79,115.47,1130.32,99.22,1103.33,99.22Z" transform="translate(-18.93 -31.97)"/><path class="cls-3" d="M980,217.49A46.46,46.46,0,0,1,998.09,221c7.6-10.85,23.78-18.33,42.5-18.33,26,0,47.14,14.47,47.14,32.32H946.8C950.7,224.92,964.09,217.49,980,217.49Z" transform="translate(-18.93 -31.97)"/><path class="cls-3" d="M174.7,309.58a48.76,48.76,0,0,1,19,3.71c8-11.41,25-19.29,44.72-19.29C265.8,294,288,309.22,288,328H139.75C143.86,317.4,157.94,309.58,174.7,309.58Z" transform="translate(-18.93 -31.97)"/></g></g></g></svg>