<svg xmlns="http://www.w3.org/2000/svg" viewBox="0 0 1191 272.86"><defs><style>.cls-1{fill:#062a30;}</style></defs><title>midground-night</title><g id="Layer_2" data-name="Layer 2"><g id="midground"><path class="cls-1" d="M0,61.86c0,3.21,66-14,150-10s206,64,206,64,73,40,126,35,90-29,90-29,63-48,176-10,173,2,173,2,144-78.81,270-60.4v219.4H0Z"/><circle class="cls-1" cx="843.5" cy="71.99" r="34.5"/><rect class="cls-1" x="841.18" y="74.77" width="3.7" height="69.46"/><rect class="cls-1" x="391.02" width="41.44" height="114.58" rx="20.72"/><rect class="cls-1" x="409.91" y="57.9" width="4.88" height="91.42"/><rect class="cls-1" x="451.36" y="55.36" width="28.64" height="79.19" rx="14.32"/><rect class="cls-1" x="464.41" y="95.38" width="3.37" height="63.18"/><rect class="cls-1" x="887.25" y="62.37" width="17.75" height="49.07" rx="8.87"/><rect class="cls-1" x="895.34" y="87.17" width="2.09" height="39.15"/></g></g></svg>