<svg xmlns="http://www.w3.org/2000/svg" viewBox="0 0 124 124"><defs><style>.cls-1{fill:#fff;}.cls-2{fill:#999;}.cls-3{fill:#ccc;}</style></defs><title>moon</title><g id="Layer_2" data-name="Layer 2"><g id="sun_moon" data-name="sun/moon"><path class="cls-1" d="M124,62A62,62,0,1,1,93,8.28,62,62,0,0,1,124,62Z"/><path class="cls-2" d="M20.23,28.8c-2.06,5.07-2,9.63.18,10.2s5.61-3.12,7.68-8.22,2-9.68-.21-10.21S22.28,23.73,20.23,28.8Z"/><path class="cls-2" d="M25.61,47.07c-1.41,3.46-1.35,6.57.12,7s3.82-2.12,5.24-5.6,1.34-6.6-.15-7S27,43.62,25.61,47.07Z"/><path class="cls-2" d="M19.78,92.86c1.77,3.88,4.39,6.28,5.87,5.36s1.25-4.84-.54-8.75-4.41-6.31-5.88-5.36S18,89,19.78,92.86Z"/><path class="cls-2" d="M7.49,57c-.68,7.65,1.3,13.74,4.43,13.61s6.26-6.48,6.94-14.19-1.33-13.8-4.48-13.61S8.17,49.31,7.49,57Z"/><path class="cls-3" d="M124,62a62,62,0,0,1-71.34,61.3C88.85,82.87,94,36.05,93,8.28A62,62,0,0,1,124,62Z"/></g></g></svg>