<svg xmlns="http://www.w3.org/2000/svg" viewBox="0 0 1148.59 179.17"><defs><style>.cls-1{fill:#00ff7f;}.cls-2{fill:#22b573;}</style></defs><title>mountain</title><g id="Layer_2" data-name="Layer 2"><g id="mountain"><path class="cls-1" d="M438.42,67.73l89.47-43.88C559.18,8.5,594.52-7.21,627.66,3.55c29.3,9.51,54.62,39,84.56,31.72,9.1-2.19,17.06-7.7,26-10.51,46.11-14.48,86.34,45.55,134.59,42.79,8.88-.51,17.61-3.19,26.49-2.78s17.4,4,25.64,7.42l223.66,94.27c-80.4-3.18-161.13-6.35-241.15,2-37.56,3.94-75,10.43-112.74,10.66-36.54.23-72.84-5.39-109.3-7.88-82.2-5.6-165.21,4.75-246.95-5.61-54.87-6.94-110.79-23.12-164.45-9.74,31-7.73,59.36-36.08,86.15-52.28C384.58,88.88,412.75,80.33,438.42,67.73Z"/><path class="cls-2" d="M529.32,85.11,462.63,52.4C439.31,41,413,29.25,388.27,37.27c-21.84,7.09-40.72,29-63,23.65-6.78-1.64-12.72-5.74-19.37-7.84C271.5,42.29,241.52,87,205.55,85c-6.61-.38-13.12-2.38-19.74-2.08s-13,2.94-19.11,5.53L0,158.69c59.92-2.37,120.09-4.73,179.73,1.53,28,2.93,55.89,7.77,84,7.95,27.23.17,54.29-4,81.46-5.88,61.27-4.18,123.14,3.54,184.07-4.18,40.89-5.18,82.57-17.23,122.57-7.27-23.12-5.75-44.25-26.88-64.21-39C569.45,100.88,548.45,94.5,529.32,85.11Z"/></g></g></svg>