<svg xmlns="http://www.w3.org/2000/svg" viewBox="0 0 1192 362.63"><defs><style>.cls-1{fill:#22b573;}.cls-2{fill:#00ff7f;}</style></defs><title>mountain</title><g id="Layer_2" data-name="Layer 2"><g id="mountain"><rect class="cls-1" y="158.63" width="1192" height="204"/><path class="cls-2" d="M454.61,67.73l92.78-43.88C579.83,8.5,616.47-7.21,650.84,3.55c30.38,9.51,56.64,39,87.68,31.72,9.43-2.19,17.69-7.7,27-10.51C813.28,10.28,855,70.31,905,67.55c9.2-.51,18.26-3.19,27.46-2.78s18,4,26.6,7.42L1191,166.46c-83.36-3.18-167.07-6.35-250,2-39,3.94-77.74,10.43-116.9,10.66-37.9.23-75.54-5.39-113.34-7.88-85.24-5.6-171.31,4.75-256.07-5.61-56.89-6.94-114.88-23.12-170.52-9.74,32.15-7.73,61.55-36.08,89.32-52.28C398.78,88.88,428,80.33,454.61,67.73Z"/><path class="cls-1" d="M548.86,85.11,479.71,52.4C455.53,41,428.22,29.25,402.6,37.27c-22.64,7.09-42.21,29-65.35,23.65-7-1.64-13.19-5.74-20.09-7.84-35.63-10.79-66.72,34-104,31.9-6.86-.38-13.6-2.38-20.47-2.08s-13.44,2.94-19.82,5.53L0,158.69c62.13-2.37,124.53-4.73,186.37,1.53,29,2.93,57.95,7.77,87.13,7.95,28.25.17,49.32,19.31,77.5,17.46,63.53-4.18,126.82,6.71,190-1,42.4-5.18,152.53-10,194,0-24-5.76-104.94-60.67-125.64-72.75C590.48,100.88,568.7,94.5,548.86,85.11Z"/></g></g></svg>