<svg xmlns="http://www.w3.org/2000/svg" viewBox="0 0 1193 434"><defs><style>.cls-1{fill:#fff;opacity:0.6;}.cls-2{fill:none;}</style></defs><title>sky (5)</title><g id="Layer_2" data-name="Layer 2"><g id="sky"><path class="cls-1" d="M1105.05,303.07H1003.73a12,12,0,0,0-12,12v5a12,12,0,0,0,12,12h7.32c13.67.67,14.33,22,0,22H909.37a12,12,0,0,0-12,12v6.72a12,12,0,0,0,12,12h180a12,12,0,0,0,12-12v-6.72a12,12,0,0,0-12-12h-9.32c-13.83-.27-17-20.66,0-22h25a12,12,0,0,0,12-12v-5A12,12,0,0,0,1105.05,303.07Z"/><path class="cls-1" d="M371.93,188.07H503.26a15.6,15.6,0,0,1,15.56,15.56v6.48a15.6,15.6,0,0,1-15.56,15.55h-9.49c-17.71.87-18.58,28.52,0,28.52h131.8a15.6,15.6,0,0,1,15.56,15.56v8.71A15.6,15.6,0,0,1,625.57,294H392.25a15.6,15.6,0,0,1-15.56-15.55v-8.71a15.6,15.6,0,0,1,15.56-15.56h12.08c17.93-.35,22-26.79,0-28.52h-32.4a15.6,15.6,0,0,1-15.56-15.55v-6.48A15.6,15.6,0,0,1,371.93,188.07Z"/><path class="cls-1" d="M831.37,147.07H932.69a12,12,0,0,1,12,12v5a12,12,0,0,1-12,12h-7.32c-13.67.67-14.33,22,0,22h101.68a12,12,0,0,1,12,12v6.72a12,12,0,0,1-12,12h-180a12,12,0,0,1-12-12v-6.72a12,12,0,0,1,12-12h9.32c13.83-.27,17-20.66,0-22h-25a12,12,0,0,1-12-12v-5A12,12,0,0,1,831.37,147.07Z"/><path class="cls-1" d="M228.41,188H151.79a9.09,9.09,0,0,0-9.07,9.07v3.78a9.1,9.1,0,0,0,9.07,9.08h5.54c10.33.5,10.84,16.63,0,16.63H80.44a9.1,9.1,0,0,0-9.07,9.08v5.08a9.09,9.09,0,0,0,9.07,9.07H216.56a9.09,9.09,0,0,0,9.07-9.07v-5.08a9.1,9.1,0,0,0-9.07-9.08H209.5c-10.45-.2-12.85-15.62,0-16.63h18.91a9.1,9.1,0,0,0,9.07-9.08v-3.78A9.09,9.09,0,0,0,228.41,188Z"/><rect class="cls-2" width="1193" height="434"/></g></g></svg>