<svg xmlns="http://www.w3.org/2000/svg" viewBox="0 0 1193 384.79"><defs><style>.cls-1{fill:none;}.cls-2{opacity:0.8;}.cls-3{fill:#d9e69c;}.cls-4{opacity:0.36;}</style></defs><title>stars_1</title><g id="Layer_2" data-name="Layer 2"><g id="cloudfront"><rect class="cls-1" width="1193" height="384.79"/><g class="cls-2"><path class="cls-3" d="M49.59,69.92a1.7,1.7,0,0,1,0-1.69l1.68-2.66c.3-.47.09-.85-.46-.85H47.3a2.06,2.06,0,0,1-1.54-.84L44,61.14a.58.58,0,0,0-1.07,0l-1.73,2.74a2.06,2.06,0,0,1-1.54.84H36.18c-.55,0-.75.38-.46.85l1.68,2.66a1.7,1.7,0,0,1,0,1.69l-1.68,2.67c-.29.46-.09.84.46.84h3.51a2,2,0,0,1,1.54.85L43,77A.59.59,0,0,0,44,77l1.73-2.74a2,2,0,0,1,1.54-.85h3.51c.55,0,.76-.38.46-.84Z"/></g><g class="cls-2"><path class="cls-3" d="M149.47,150.9a1.75,1.75,0,0,1,0-1.69l1.69-2.66c.29-.47.08-.85-.47-.85h-3.51a2,2,0,0,1-1.53-.84l-1.74-2.74a.59.59,0,0,0-1.07,0l-1.73,2.74a2,2,0,0,1-1.53.84h-3.51c-.55,0-.76.38-.47.85l1.69,2.66a1.75,1.75,0,0,1,0,1.69l-1.69,2.67c-.29.46-.08.84.47.84h3.51a2,2,0,0,1,1.53.85l1.73,2.74a.59.59,0,0,0,1.07,0l1.74-2.74a2,2,0,0,1,1.53-.85h3.51c.55,0,.76-.38.47-.84Z"/></g><g class="cls-2"><path class="cls-3" d="M81.73,248.73a1.75,1.75,0,0,1,0-1.69l1.69-2.67c.29-.46.08-.84-.47-.84H79.44a2,2,0,0,1-1.53-.85l-1.73-2.74a.59.59,0,0,0-1.07,0l-1.74,2.74a2,2,0,0,1-1.53.85H68.33c-.55,0-.76.38-.47.84L69.55,247a1.75,1.75,0,0,1,0,1.69l-1.69,2.66c-.29.47-.08.85.47.85h3.51a2,2,0,0,1,1.53.84l1.74,2.74a.58.58,0,0,0,1.07,0l1.73-2.74a2,2,0,0,1,1.53-.84H83c.55,0,.76-.38.47-.85Z"/></g><g class="cls-2"><path class="cls-3" d="M281.56,304.61a1.75,1.75,0,0,1,0-1.69l1.69-2.66c.29-.47.08-.85-.47-.85h-3.51a2,2,0,0,1-1.53-.84L276,295.83a.58.58,0,0,0-1.07,0l-1.73,2.74a2,2,0,0,1-1.53.84h-3.51c-.55,0-.76.38-.47.85l1.69,2.66a1.75,1.75,0,0,1,0,1.69l-1.69,2.67c-.29.46-.08.84.47.84h3.51a2,2,0,0,1,1.53.85l1.73,2.74a.59.59,0,0,0,1.07,0l1.74-2.74a2,2,0,0,1,1.53-.85h3.51c.55,0,.76-.38.47-.84Z"/></g><g class="cls-2"><path class="cls-3" d="M480.73,315.66a1.71,1.71,0,0,1-.27-1.67l1.24-2.89c.21-.51-.05-.85-.6-.76l-3.46.55a2,2,0,0,1-1.65-.59l-2.14-2.43a.59.59,0,0,0-1.06.17l-1.28,3a2,2,0,0,1-1.38,1.08l-3.46.56c-.54.08-.69.49-.33.91l2.09,2.36a1.76,1.76,0,0,1,.27,1.67l-1.24,2.89c-.22.51.05.85.59.77l3.46-.56a2,2,0,0,1,1.65.59l2.15,2.43a.59.59,0,0,0,1.06-.17l1.27-3a2,2,0,0,1,1.38-1.08l3.47-.56c.54-.08.69-.49.32-.9Z"/></g><g class="cls-2"><path class="cls-3" d="M686.89,339.13a1.77,1.77,0,0,1-.27-1.67l1.24-2.9c.22-.51-.05-.85-.59-.76l-3.46.56a2,2,0,0,1-1.65-.59L680,331.34a.58.58,0,0,0-1.06.17l-1.27,3a2,2,0,0,1-1.38,1.07l-3.47.56c-.54.09-.69.5-.32.91l2.08,2.36a1.71,1.71,0,0,1,.27,1.67l-1.24,2.9c-.21.5,0,.85.6.76l3.46-.56a2,2,0,0,1,1.65.59l2.14,2.43a.59.59,0,0,0,1.06-.17l1.28-3a2,2,0,0,1,1.38-1.08l3.46-.55c.54-.09.69-.5.33-.91Z"/></g><g class="cls-2"><path class="cls-3" d="M417,82.77a1.7,1.7,0,0,1,0-1.69l1.68-2.67c.3-.46.09-.84-.46-.84h-3.51a2,2,0,0,1-1.54-.85L411.48,74a.58.58,0,0,0-1.07,0l-1.73,2.73a2,2,0,0,1-1.54.85h-3.5c-.55,0-.76.38-.47.84l1.69,2.67a1.75,1.75,0,0,1,0,1.69l-1.69,2.66c-.29.47-.08.85.47.85h3.5a2.06,2.06,0,0,1,1.54.84l1.73,2.74a.58.58,0,0,0,1.07,0l1.73-2.74a2.06,2.06,0,0,1,1.54-.84h3.51c.55,0,.76-.38.46-.85Z"/></g><g class="cls-2"><path class="cls-3" d="M555.68,43.5a1.75,1.75,0,0,1,0-1.69l1.69-2.66c.29-.47.08-.85-.47-.85h-3.51a2,2,0,0,1-1.53-.84l-1.74-2.74a.57.57,0,0,0-1.06,0l-1.74,2.74a2,2,0,0,1-1.53.84h-3.51c-.55,0-.76.38-.47.85l1.69,2.66a1.75,1.75,0,0,1,0,1.69l-1.69,2.67c-.29.46-.08.84.47.84h3.51a2,2,0,0,1,1.53.85l1.74,2.74a.58.58,0,0,0,1.06,0l1.74-2.74a2,2,0,0,1,1.53-.85h3.51c.55,0,.76-.38.47-.84Z"/></g><g class="cls-2"><path class="cls-3" d="M244.3,52.29a1.75,1.75,0,0,1,0-1.69L246,47.93c.29-.46.08-.84-.47-.84H242a2,2,0,0,1-1.54-.85l-1.73-2.74a.59.59,0,0,0-1.07,0L236,46.24a2,2,0,0,1-1.54.85H230.9c-.55,0-.76.38-.46.84l1.68,2.67a1.7,1.7,0,0,1,0,1.69L230.44,55c-.3.47-.09.85.46.85h3.51a2.06,2.06,0,0,1,1.54.84l1.73,2.74a.58.58,0,0,0,1.07,0l1.73-2.74A2,2,0,0,1,242,55.8h3.5c.55,0,.76-.38.47-.85Z"/></g><g class="cls-2"><path class="cls-3" d="M296,192.84a1.75,1.75,0,0,1,0-1.69l1.69-2.66c.29-.46.08-.85-.47-.85h-3.5a2.06,2.06,0,0,1-1.54-.84l-1.73-2.74a.59.59,0,0,0-1.07,0l-1.73,2.74a2.06,2.06,0,0,1-1.54.84h-3.51c-.55,0-.76.39-.46.85l1.68,2.66a1.7,1.7,0,0,1,0,1.69l-1.68,2.67c-.3.46-.09.84.46.84h3.51a2,2,0,0,1,1.54.85l1.73,2.74a.59.59,0,0,0,1.07,0l1.73-2.74a2,2,0,0,1,1.54-.85h3.5c.55,0,.76-.38.47-.84Z"/></g><g class="cls-2"><path class="cls-3" d="M671.21,98.28a1.7,1.7,0,0,1,0-1.69l1.49-2.36c.29-.46.08-.84-.47-.84h-3.12a2,2,0,0,1-1.53-.85L666,90.11a.59.59,0,0,0-1.07,0l-1.53,2.43a2,2,0,0,1-1.54.85h-3.12c-.55,0-.76.38-.46.84l1.49,2.36a1.75,1.75,0,0,1,0,1.69l-1.49,2.36c-.3.46-.09.84.46.84h3.12a2,2,0,0,1,1.54.85l1.53,2.42a.58.58,0,0,0,1.07,0l1.54-2.42a2,2,0,0,1,1.53-.85h3.12c.55,0,.76-.38.47-.84Z"/></g><g class="cls-2"><path class="cls-3" d="M764.06,173.56a1.7,1.7,0,0,1,0-1.69l1.49-2.36c.29-.46.08-.84-.47-.84H762a2,2,0,0,1-1.53-.85l-1.54-2.43a.59.59,0,0,0-1.07,0l-1.53,2.43a2,2,0,0,1-1.54.85h-3.12c-.55,0-.76.38-.46.84l1.49,2.36a1.75,1.75,0,0,1,0,1.69l-1.49,2.36c-.3.46-.09.84.46.84h3.12a2,2,0,0,1,1.54.85l1.53,2.42a.58.58,0,0,0,1.07,0l1.54-2.42a2,2,0,0,1,1.53-.85h3.12c.55,0,.76-.38.47-.84Z"/></g><g class="cls-2"><path class="cls-3" d="M701.09,264.5a1.75,1.75,0,0,1,0-1.69l1.49-2.36c.29-.47.08-.85-.47-.85H699a2,2,0,0,1-1.53-.84l-1.54-2.43a.59.59,0,0,0-1.07,0l-1.53,2.43a2,2,0,0,1-1.54.84h-3.12c-.55,0-.76.38-.46.85l1.49,2.36a1.75,1.75,0,0,1,0,1.69l-1.49,2.35c-.3.47-.09.85.46.85h3.12a2,2,0,0,1,1.54.84l1.53,2.43a.58.58,0,0,0,1.07,0l1.54-2.43a2,2,0,0,1,1.53-.84h3.12c.55,0,.76-.38.47-.85Z"/></g><g class="cls-2"><path class="cls-3" d="M832,338.86a1.7,1.7,0,0,1,0-1.69l1.49-2.35c.29-.47.08-.85-.47-.85h-3.12a2,2,0,0,1-1.53-.84l-1.54-2.43a.58.58,0,0,0-1.07,0l-1.53,2.43a2.06,2.06,0,0,1-1.54.84h-3.12c-.55,0-.76.38-.46.85l1.49,2.35a1.75,1.75,0,0,1,0,1.69l-1.49,2.36c-.3.47-.09.85.46.85h3.12a2.06,2.06,0,0,1,1.54.84l1.53,2.43a.59.59,0,0,0,1.07,0l1.54-2.43a2,2,0,0,1,1.53-.84H833c.55,0,.76-.38.47-.85Z"/></g><g class="cls-2"><path class="cls-3" d="M1026.79,177.32a1.75,1.75,0,0,1,0-1.69l1.49-2.36c.29-.46.08-.84-.47-.84h-3.12a2,2,0,0,1-1.53-.85l-1.54-2.43a.59.59,0,0,0-1.07,0l-1.53,2.43a2,2,0,0,1-1.54.85h-3.12c-.55,0-.76.38-.46.84l1.49,2.36a1.75,1.75,0,0,1,0,1.69l-1.49,2.36c-.3.46-.09.84.46.84h3.12a2,2,0,0,1,1.54.85l1.53,2.42a.58.58,0,0,0,1.07,0l1.54-2.42a2,2,0,0,1,1.53-.85h3.12c.55,0,.76-.38.47-.84Z"/></g><g class="cls-2"><path class="cls-3" d="M963.82,268.26a1.75,1.75,0,0,1,0-1.69l1.49-2.36c.29-.47.09-.85-.46-.85h-3.13a2,2,0,0,1-1.53-.84l-1.54-2.43a.58.58,0,0,0-1.06,0l-1.54,2.43a2,2,0,0,1-1.54.84h-3.12c-.55,0-.76.38-.46.85l1.49,2.36a1.75,1.75,0,0,1,0,1.69l-1.49,2.35c-.3.47-.09.85.46.85h3.12a2,2,0,0,1,1.54.84l1.54,2.43a.57.57,0,0,0,1.06,0l1.54-2.43a2,2,0,0,1,1.53-.84h3.13c.55,0,.75-.38.46-.85Z"/></g><g class="cls-2"><path class="cls-3" d="M1149.58,320.21a1.75,1.75,0,0,1,0-1.69l1.49-2.36c.3-.47.09-.85-.46-.85h-3.12a2,2,0,0,1-1.54-.84l-1.54-2.43a.58.58,0,0,0-1.06,0l-1.54,2.43a2,2,0,0,1-1.53.84h-3.13c-.55,0-.75.38-.46.85l1.49,2.36a1.75,1.75,0,0,1,0,1.69l-1.49,2.35c-.29.47-.09.85.46.85h3.13a2,2,0,0,1,1.53.84l1.54,2.43a.57.57,0,0,0,1.06,0l1.54-2.43a2,2,0,0,1,1.54-.84h3.12c.55,0,.76-.38.46-.85Z"/></g><g class="cls-2"><path class="cls-3" d="M1012.79,110.22a1.75,1.75,0,0,1,0-1.69l1.49-2.36c.29-.46.09-.84-.46-.84h-3.13a2,2,0,0,1-1.53-.85l-1.54-2.43a.59.59,0,0,0-1.07,0l-1.53,2.43a2,2,0,0,1-1.54.85h-3.12c-.55,0-.76.38-.46.84l1.49,2.36a1.75,1.75,0,0,1,0,1.69l-1.49,2.36c-.3.46-.09.84.46.84h3.12a2,2,0,0,1,1.54.85l1.53,2.43a.59.59,0,0,0,1.07,0l1.54-2.43a2,2,0,0,1,1.53-.85h3.13c.55,0,.75-.38.46-.84Z"/></g><g class="cls-2"><path class="cls-3" d="M852.22,81.88a1.7,1.7,0,0,1,0-1.69l1.49-2.35c.29-.47.08-.85-.47-.85h-3.12a2,2,0,0,1-1.53-.84l-1.54-2.43a.58.58,0,0,0-1.07,0l-1.53,2.43a2.06,2.06,0,0,1-1.54.84h-3.12c-.55,0-.76.38-.46.85l1.49,2.35a1.75,1.75,0,0,1,0,1.69l-1.49,2.36c-.3.47-.09.85.46.85h3.12a2.06,2.06,0,0,1,1.54.84L846,88.36a.59.59,0,0,0,1.07,0l1.54-2.43a2,2,0,0,1,1.53-.84h3.12c.55,0,.76-.38.47-.85Z"/></g><g class="cls-2"><path class="cls-3" d="M900.23,212.55a1.75,1.75,0,0,1,0-1.69l1.49-2.36c.3-.47.09-.85-.46-.85h-3.12a2.06,2.06,0,0,1-1.54-.84l-1.53-2.43a.59.59,0,0,0-1.07,0l-1.54,2.43a2,2,0,0,1-1.53.84h-3.12c-.55,0-.76.38-.47.85l1.49,2.36a1.7,1.7,0,0,1,0,1.69l-1.49,2.35c-.29.47-.08.85.47.85h3.12a2,2,0,0,1,1.53.84L894,219a.58.58,0,0,0,1.07,0l1.53-2.43a2.06,2.06,0,0,1,1.54-.84h3.12c.55,0,.76-.38.46-.85Z"/></g><g class="cls-4"><g class="cls-2"><path class="cls-3" d="M53,171.55a1.75,1.75,0,0,1,0-1.69L54,168.19c.29-.47.08-.85-.47-.85H51.3a2,2,0,0,1-1.53-.84l-1.09-1.72a.58.58,0,0,0-1.07,0l-1.09,1.72a2,2,0,0,1-1.53.84H42.74c-.55,0-.76.38-.47.85l1.06,1.67a1.75,1.75,0,0,1,0,1.69l-1.06,1.66c-.29.47-.08.85.47.85H45a2,2,0,0,1,1.53.84l1.09,1.73a.59.59,0,0,0,1.07,0l1.09-1.73a2,2,0,0,1,1.53-.84h2.25c.55,0,.76-.38.47-.85Z"/></g><g class="cls-2"><path class="cls-3" d="M212.41,253.92a1.75,1.75,0,0,1,0-1.69l1.06-1.67c.29-.46.08-.84-.47-.84h-2.25a2,2,0,0,1-1.53-.85l-1.09-1.72a.58.58,0,0,0-1.07,0L206,248.87a2,2,0,0,1-1.53.85h-2.25c-.55,0-.76.38-.47.84l1.06,1.67a1.75,1.75,0,0,1,0,1.69l-1.06,1.66c-.29.47-.08.85.47.85h2.25a2,2,0,0,1,1.53.84l1.09,1.73a.59.59,0,0,0,1.07,0l1.09-1.73a2,2,0,0,1,1.53-.84H213c.55,0,.76-.38.47-.85Z"/></g><g class="cls-2"><path class="cls-3" d="M1026.82,338.86a1.7,1.7,0,0,1,0-1.69l1-1.66c.29-.47.09-.85-.46-.85h-2.25a2,2,0,0,1-1.53-.84l-1.1-1.73a.58.58,0,0,0-1.06,0l-1.1,1.73a2,2,0,0,1-1.53.84h-2.25c-.55,0-.75.38-.46.85l1,1.66a1.7,1.7,0,0,1,0,1.69l-1,1.67c-.29.46-.09.84.46.84h2.25a2,2,0,0,1,1.53.85l1.1,1.72a.57.57,0,0,0,1.06,0l1.1-1.72a2,2,0,0,1,1.53-.85h2.25c.55,0,.75-.38.46-.84Z"/></g><g class="cls-2"><path class="cls-3" d="M174.86,328.37a1.75,1.75,0,0,1,0-1.69l1-1.66c.3-.47.09-.85-.46-.85H173.2a2,2,0,0,1-1.53-.84l-1.09-1.73a.59.59,0,0,0-1.07,0l-1.09,1.73a2.06,2.06,0,0,1-1.54.84h-2.24c-.55,0-.76.38-.47.85l1.06,1.66a1.75,1.75,0,0,1,0,1.69L164.17,330c-.29.46-.08.84.47.84h2.24a2,2,0,0,1,1.54.85l1.09,1.72a.58.58,0,0,0,1.07,0l1.09-1.72a2,2,0,0,1,1.53-.85h2.25c.55,0,.76-.38.46-.84Z"/></g><g class="cls-2"><path class="cls-3" d="M251.34,120.51a1.75,1.75,0,0,1,0-1.69l1-1.66c.3-.47.09-.85-.46-.85h-2.25a2,2,0,0,1-1.53-.84l-1.09-1.73a.59.59,0,0,0-1.07,0l-1.09,1.73a2.06,2.06,0,0,1-1.54.84h-2.24c-.55,0-.76.38-.47.85l1.06,1.66a1.75,1.75,0,0,1,0,1.69l-1.06,1.67c-.29.46-.08.84.47.84h2.24a2,2,0,0,1,1.54.85l1.09,1.72a.58.58,0,0,0,1.07,0l1.09-1.72a2,2,0,0,1,1.53-.85h2.25c.55,0,.76-.38.46-.84Z"/></g><g class="cls-2"><path class="cls-3" d="M133.48,34.72a1.75,1.75,0,0,1,0-1.69l1.05-1.67c.3-.46.09-.84-.46-.84h-2.25a2,2,0,0,1-1.53-.85L129.2,28a.58.58,0,0,0-1.07,0L127,29.67a2,2,0,0,1-1.54.85h-2.24c-.55,0-.76.38-.47.84L123.85,33a1.75,1.75,0,0,1,0,1.69l-1.06,1.66c-.29.47-.08.85.47.85h2.24a2,2,0,0,1,1.54.85l1.09,1.72a.59.59,0,0,0,1.07,0l1.09-1.72a2,2,0,0,1,1.53-.85h2.25c.55,0,.76-.38.46-.85Z"/></g><g class="cls-2"><path class="cls-3" d="M373.32,253.92a1.7,1.7,0,0,1,0-1.69l1.05-1.67c.29-.46.09-.84-.46-.84h-2.25a2,2,0,0,1-1.53-.85l-1.1-1.72a.57.57,0,0,0-1.06,0l-1.1,1.72a2,2,0,0,1-1.53.85h-2.25c-.55,0-.75.38-.46.84l1.05,1.67a1.7,1.7,0,0,1,0,1.69l-1.05,1.66c-.29.47-.09.85.46.85h2.25a2,2,0,0,1,1.53.84L368,259a.58.58,0,0,0,1.06,0l1.1-1.73a2,2,0,0,1,1.53-.84h2.25c.55,0,.75-.38.46-.85Z"/></g><g class="cls-2"><path class="cls-3" d="M376.15,150.9a1.75,1.75,0,0,1,0-1.69l.91-1.43c.29-.46.08-.84-.47-.84h-1.95a2,2,0,0,1-1.53-.85l-.94-1.48a.59.59,0,0,0-1.07,0l-.94,1.48a2,2,0,0,1-1.53.85h-1.95c-.55,0-.76.38-.46.84l.9,1.43a1.75,1.75,0,0,1,0,1.69l-.9,1.43c-.3.47-.09.85.46.85h1.95a2,2,0,0,1,1.53.84l.94,1.49a.59.59,0,0,0,1.07,0l.94-1.49a2,2,0,0,1,1.53-.84h1.95c.55,0,.76-.38.47-.85Z"/></g><g class="cls-2"><path class="cls-3" d="M601.52,320.21a1.7,1.7,0,0,1,0-1.69l.9-1.43c.29-.47.08-.85-.47-.85H600a2.06,2.06,0,0,1-1.54-.84l-.94-1.49a.58.58,0,0,0-1.06,0l-.94,1.49a2.06,2.06,0,0,1-1.54.84h-1.94c-.55,0-.76.38-.47.85l.9,1.43a1.7,1.7,0,0,1,0,1.69l-.9,1.43c-.29.46-.08.84.47.84H594a2,2,0,0,1,1.54.85l.94,1.48a.58.58,0,0,0,1.06,0l.94-1.48a2,2,0,0,1,1.54-.85H602c.55,0,.76-.38.47-.84Z"/></g><g class="cls-2"><path class="cls-3" d="M473.3,217.85a1.77,1.77,0,0,1,0-1.7l.9-1.42c.3-.47.09-.85-.46-.85h-1.95a2,2,0,0,1-1.53-.84l-.94-1.49a.59.59,0,0,0-1.07,0l-.94,1.49a2,2,0,0,1-1.53.84h-1.95c-.55,0-.76.38-.47.85l.91,1.42a1.77,1.77,0,0,1,0,1.7l-.91,1.42c-.29.47-.08.85.47.85h1.95a2,2,0,0,1,1.53.84l.94,1.49a.59.59,0,0,0,1.07,0l.94-1.49a2,2,0,0,1,1.53-.84h1.95c.55,0,.76-.38.46-.85Z"/></g><g class="cls-2"><path class="cls-3" d="M413.11,348.78a1.7,1.7,0,0,1,0-1.69l.9-1.43c.29-.47.08-.85-.47-.85H411.6a2.06,2.06,0,0,1-1.54-.84l-.94-1.49a.58.58,0,0,0-1.06,0l-.94,1.49a2.06,2.06,0,0,1-1.54.84h-1.94c-.55,0-.76.38-.47.85l.9,1.43a1.7,1.7,0,0,1,0,1.69l-.9,1.43c-.29.46-.08.84.47.84h1.94a2,2,0,0,1,1.54.85l.94,1.48a.58.58,0,0,0,1.06,0l.94-1.48a2,2,0,0,1,1.54-.85h1.94c.55,0,.76-.38.47-.84Z"/></g><g class="cls-2"><path class="cls-3" d="M838.55,143.47a1.75,1.75,0,0,1,0-1.69l.9-1.43c.3-.47.09-.85-.46-.85h-2a2,2,0,0,1-1.53-.84l-.94-1.49a.59.59,0,0,0-1.07,0l-.94,1.49a2,2,0,0,1-1.53.84h-1.95c-.55,0-.76.38-.47.85l.91,1.43a1.75,1.75,0,0,1,0,1.69l-.91,1.43c-.29.46-.08.84.47.84H831a2,2,0,0,1,1.53.85l.94,1.48a.59.59,0,0,0,1.07,0l.94-1.48a2,2,0,0,1,1.53-.85h2c.55,0,.76-.38.46-.84Z"/></g><g class="cls-2"><path class="cls-3" d="M728.67,58.14a1.75,1.75,0,0,1,0-1.69l.9-1.43c.3-.47.09-.85-.46-.85h-2a2,2,0,0,1-1.53-.84l-.94-1.48a.58.58,0,0,0-1.07,0l-.94,1.48a2,2,0,0,1-1.53.84H719.2c-.55,0-.76.38-.47.85l.91,1.43a1.75,1.75,0,0,1,0,1.69l-.91,1.43c-.29.46-.08.84.47.84h1.95a2,2,0,0,1,1.53.85l.94,1.48a.58.58,0,0,0,1.07,0l.94-1.48a2,2,0,0,1,1.53-.85h2c.55,0,.76-.38.46-.84Z"/></g><g class="cls-2"><path class="cls-3" d="M814.52,248.73a1.7,1.7,0,0,1,0-1.69l.9-1.43c.29-.47.08-.85-.47-.85H813a2.06,2.06,0,0,1-1.54-.84l-.94-1.49a.58.58,0,0,0-1.06,0l-.94,1.49a2.06,2.06,0,0,1-1.54.84h-1.94c-.55,0-.76.38-.47.85l.9,1.43a1.7,1.7,0,0,1,0,1.69l-.9,1.43c-.29.46-.08.84.47.84H807a2,2,0,0,1,1.54.85l.94,1.48a.57.57,0,0,0,1.06,0l.94-1.48A2,2,0,0,1,813,251H815c.55,0,.76-.38.47-.84Z"/></g><g class="cls-2"><path class="cls-3" d="M541.58,149.76a1.75,1.75,0,0,1,0-1.69l.9-1.43c.3-.46.09-.84-.46-.84h-1.95a2,2,0,0,1-1.53-.85l-.94-1.48a.58.58,0,0,0-1.07,0l-.94,1.48a2,2,0,0,1-1.53.85h-1.95c-.55,0-.76.38-.47.84l.91,1.43a1.75,1.75,0,0,1,0,1.69l-.91,1.43c-.29.46-.08.84.47.84h1.95a2,2,0,0,1,1.53.85l.94,1.48a.58.58,0,0,0,1.07,0l.94-1.48a2,2,0,0,1,1.53-.85H542c.55,0,.76-.38.46-.84Z"/></g><g class="cls-2"><path class="cls-3" d="M693.58,173.25a1.75,1.75,0,0,1,0-1.69l.9-1.43c.3-.47.09-.85-.46-.85h-1.95a2,2,0,0,1-1.53-.84L689.6,167a.58.58,0,0,0-1.07,0l-.94,1.48a2,2,0,0,1-1.53.84h-1.95c-.55,0-.76.38-.47.85l.91,1.43a1.75,1.75,0,0,1,0,1.69l-.91,1.43c-.29.46-.08.84.47.84h1.95a2,2,0,0,1,1.53.85l.94,1.48a.58.58,0,0,0,1.07,0l.94-1.48a2,2,0,0,1,1.53-.85H694c.55,0,.76-.38.46-.84Z"/></g><g class="cls-2"><path class="cls-3" d="M961.31,74a1.75,1.75,0,0,1,0-1.69l.91-1.43c.29-.47.08-.85-.47-.85h-1.94a2.06,2.06,0,0,1-1.54-.84l-.94-1.49a.59.59,0,0,0-1.07,0l-.93,1.49a2.06,2.06,0,0,1-1.54.84h-1.95c-.55,0-.75.38-.46.85l.9,1.43a1.7,1.7,0,0,1,0,1.69l-.9,1.42c-.29.47-.09.85.46.85h1.95a2.06,2.06,0,0,1,1.54.84l.93,1.49a.59.59,0,0,0,1.07,0l.94-1.49a2.06,2.06,0,0,1,1.54-.84h1.94c.55,0,.76-.38.47-.85Z"/></g><g class="cls-2"><path class="cls-3" d="M1106.11,83.19a1.75,1.75,0,0,1,0-1.69l.91-1.43c.29-.47.08-.85-.47-.85h-2a2,2,0,0,1-1.53-.84l-.94-1.49a.59.59,0,0,0-1.07,0l-.94,1.49a2,2,0,0,1-1.53.84h-1.95c-.55,0-.76.38-.46.85l.9,1.43a1.75,1.75,0,0,1,0,1.69l-.9,1.42c-.3.47-.09.85.46.85h1.95a2,2,0,0,1,1.53.85l.94,1.48a.59.59,0,0,0,1.07,0l.94-1.48a2,2,0,0,1,1.53-.85h2c.55,0,.76-.38.47-.85Z"/></g><g class="cls-2"><path class="cls-3" d="M1096.11,224.19a1.75,1.75,0,0,1,0-1.69l.91-1.43c.29-.47.08-.85-.47-.85h-2a2,2,0,0,1-1.53-.84l-.94-1.49a.59.59,0,0,0-1.07,0l-.94,1.49a2,2,0,0,1-1.53.84h-1.95c-.55,0-.76.38-.46.85l.9,1.43a1.75,1.75,0,0,1,0,1.69l-.9,1.42c-.3.47-.09.85.46.85h1.95a2,2,0,0,1,1.53.85l.94,1.48a.59.59,0,0,0,1.07,0l.94-1.48a2,2,0,0,1,1.53-.85h2c.55,0,.76-.38.47-.85Z"/></g></g></g></g></svg>